<?xml version="1.0" encoding="UTF-8"?>
<!-- Generator: visioncortex VTracer 0.6.3 -->
<svg version="1.1" xmlns="http://www.w3.org/2000/svg" width="1280" height="1280" className=" fill-current text-white">
<path d="M0 0 C3.68 0 7.37 -0 11.05 -0.01 C17.48 -0.02 23.9 -0.02 30.33 -0.02 C39.88 -0.01 49.44 -0.02 58.99 -0.02 C77.06 -0.04 95.13 -0.04 113.19 -0.04 C127.16 -0.04 141.12 -0.04 155.09 -0.04 C157.1 -0.04 159.11 -0.04 161.13 -0.05 C164.16 -0.05 167.2 -0.05 170.23 -0.05 C198.41 -0.06 226.6 -0.06 254.78 -0.06 C255.84 -0.06 256.9 -0.06 257.99 -0.06 C263.36 -0.06 268.74 -0.05 274.11 -0.05 C275.71 -0.05 275.71 -0.05 277.34 -0.05 C279.5 -0.05 281.66 -0.05 283.82 -0.05 C317.36 -0.05 350.91 -0.05 384.45 -0.07 C422.23 -0.09 460.01 -0.1 497.79 -0.1 C501.82 -0.1 505.86 -0.1 509.9 -0.1 C511.39 -0.1 511.39 -0.1 512.91 -0.1 C527.84 -0.1 542.76 -0.1 557.69 -0.12 C574.69 -0.13 591.7 -0.13 608.7 -0.12 C617.36 -0.11 626.02 -0.11 634.67 -0.12 C668.97 -0.17 703.14 -0.2 737.3 3.26 C738.52 3.39 738.52 3.39 739.78 3.51 C767.64 6.35 767.64 6.35 780.84 8.68 C782.1 8.9 783.36 9.12 784.66 9.35 C790.81 10.9 795.97 13.83 801.3 17.26 C801.91 17.65 802.52 18.04 803.15 18.44 C813.89 26.33 819.4 39.69 821.86 52.26 C822.07 53.32 822.28 54.38 822.5 55.46 C831.01 99.48 829.6 144.66 829.57 189.29 C829.57 198.1 829.58 206.91 829.58 215.71 C829.6 233.96 829.6 252.22 829.6 270.47 C829.6 284.57 829.6 298.67 829.6 312.77 C829.6 314.81 829.6 316.84 829.6 318.88 C829.61 321.95 829.61 325.01 829.61 328.08 C829.62 356.56 829.62 385.03 829.62 413.5 C829.62 414.57 829.62 415.64 829.62 416.74 C829.61 422.17 829.61 427.59 829.61 433.02 C829.61 434.09 829.61 435.17 829.61 436.28 C829.61 438.46 829.61 440.64 829.61 442.81 C829.61 476.7 829.61 510.58 829.63 544.46 C829.65 582.63 829.66 620.8 829.66 658.98 C829.66 663.06 829.66 667.14 829.66 671.22 C829.66 672.22 829.66 673.23 829.66 674.26 C829.66 689.34 829.66 704.42 829.67 719.5 C829.69 736.67 829.69 753.84 829.68 771.01 C829.67 779.75 829.67 788.49 829.68 797.23 C829.77 865.73 829.77 865.73 826.3 899.26 C826.21 900.07 826.13 900.88 826.05 901.71 C824.62 915.62 823.16 929.51 820.88 943.31 C820.78 944 820.67 944.69 820.56 945.4 C819.32 952.56 816.25 958.22 812.3 964.26 C811.91 964.87 811.52 965.49 811.12 966.11 C803.24 976.86 789.86 982.36 777.3 984.83 C776.24 985.04 775.18 985.25 774.1 985.46 C729.85 994.02 684.43 992.56 639.57 992.53 C630.65 992.52 621.74 992.53 612.82 992.53 C595.37 992.54 577.91 992.54 560.45 992.53 C545.17 992.53 529.89 992.53 514.61 992.53 C513.59 992.53 512.58 992.53 511.53 992.53 C507.39 992.53 503.26 992.53 499.13 992.53 C460.44 992.54 421.76 992.53 383.07 992.52 C348.79 992.51 314.5 992.51 280.22 992.52 C241.6 992.53 202.98 992.54 164.36 992.53 C160.23 992.53 156.11 992.53 151.98 992.53 C150.46 992.53 150.46 992.53 148.9 992.53 C133.64 992.53 118.38 992.53 103.12 992.54 C85.75 992.54 68.38 992.54 51.01 992.53 C42.16 992.52 33.31 992.52 24.47 992.53 C-65.36 992.59 -65.36 992.59 -103.7 986.26 C-104.63 986.11 -105.56 985.96 -106.52 985.8 C-116.98 984.01 -125.72 981.09 -134.7 975.26 C-135.31 974.88 -135.92 974.49 -136.55 974.09 C-145.78 967.32 -152.36 955.13 -154.27 944.01 C-154.42 943.08 -154.56 942.16 -154.7 941.2 C-154.86 940.19 -155.03 939.18 -155.19 938.13 C-156.7 928.17 -157.79 918.16 -158.83 908.14 C-158.91 907.38 -158.99 906.61 -159.07 905.83 C-161.73 880.31 -163.01 854.9 -162.96 829.25 C-162.96 825.52 -162.96 821.79 -162.97 818.06 C-162.97 811.55 -162.97 805.05 -162.97 798.55 C-162.96 788.87 -162.97 779.2 -162.97 769.53 C-162.98 752.24 -162.98 734.95 -162.98 717.66 C-162.97 702.53 -162.97 687.39 -162.97 672.26 C-162.97 671.25 -162.97 670.25 -162.97 669.21 C-162.97 665.12 -162.97 661.03 -162.97 656.94 C-162.98 618.63 -162.97 580.32 -162.96 542.01 C-162.95 508.06 -162.95 474.1 -162.96 440.15 C-162.97 401.92 -162.98 363.69 -162.97 325.46 C-162.97 321.37 -162.97 317.29 -162.97 313.2 C-162.97 312.2 -162.97 311.19 -162.97 310.16 C-162.97 295.04 -162.97 279.93 -162.98 264.82 C-162.98 247.61 -162.98 230.41 -162.97 213.2 C-162.96 204.44 -162.96 195.67 -162.97 186.91 C-163.03 97.61 -163.03 97.61 -156.7 59.26 C-156.48 57.87 -156.48 57.87 -156.24 56.45 C-154.45 45.98 -151.53 37.24 -145.7 28.26 C-145.32 27.65 -144.93 27.04 -144.53 26.42 C-137.76 17.18 -125.57 10.6 -114.45 8.69 C-113.52 8.55 -112.6 8.41 -111.64 8.26 C-110.12 8.02 -110.12 8.02 -108.57 7.78 C-98.61 6.27 -88.6 5.18 -78.58 4.14 C-77.82 4.06 -77.05 3.98 -76.27 3.89 C-50.85 1.25 -25.55 -0.05 0 0 Z M-23.7 149.26 C-24.01 151.52 -24.01 151.52 -23.96 154.08 C-23.97 155.08 -23.97 156.08 -23.98 157.11 C-23.98 158.21 -23.97 159.31 -23.97 160.45 C-23.97 161.62 -23.98 162.79 -23.98 164 C-23.99 167.28 -23.99 170.55 -23.99 173.83 C-23.99 177.38 -24 180.94 -24.01 184.5 C-24.03 191.56 -24.03 198.62 -24.04 205.68 C-24.04 214.13 -24.06 222.59 -24.07 231.04 C-24.11 251.48 -24.13 271.92 -24.14 292.35 C-24.15 302.02 -24.15 311.68 -24.16 321.35 C-24.19 354.42 -24.22 387.48 -24.23 420.55 C-24.23 422.63 -24.23 424.71 -24.23 426.78 C-24.23 427.81 -24.23 428.84 -24.23 429.9 C-24.24 435.12 -24.24 440.34 -24.24 445.56 C-24.24 446.59 -24.24 447.63 -24.24 448.7 C-24.25 482.28 -24.29 515.87 -24.35 549.45 C-24.41 584.94 -24.44 620.43 -24.44 655.92 C-24.44 659.82 -24.44 663.71 -24.45 667.61 C-24.45 668.57 -24.45 669.52 -24.45 670.51 C-24.45 685.96 -24.48 701.41 -24.51 716.85 C-24.55 732.38 -24.55 747.9 -24.54 763.42 C-24.53 772.64 -24.54 781.87 -24.57 791.09 C-24.6 797.25 -24.6 803.41 -24.57 809.57 C-24.56 813.08 -24.56 816.59 -24.59 820.1 C-24.62 823.89 -24.6 827.67 -24.57 831.45 C-24.59 832.54 -24.61 833.63 -24.62 834.76 C-24.52 841.45 -23.24 844.95 -18.5 849.73 C-15.15 852.59 -13.22 853.51 -8.89 853.52 C-7.89 853.53 -6.89 853.53 -5.86 853.54 C-4.76 853.54 -3.65 853.53 -2.52 853.53 C-0.76 853.54 -0.76 853.54 1.04 853.54 C4.31 853.55 7.59 853.55 10.86 853.55 C14.42 853.55 17.97 853.56 21.53 853.57 C28.59 853.59 35.65 853.59 42.71 853.6 C51.17 853.6 59.62 853.62 68.08 853.63 C88.51 853.67 108.95 853.68 129.39 853.7 C139.05 853.7 148.72 853.71 158.38 853.72 C191.45 853.75 224.52 853.78 257.59 853.79 C259.66 853.79 261.74 853.79 263.82 853.79 C265.36 853.79 265.36 853.79 266.94 853.79 C272.16 853.79 277.37 853.8 282.59 853.8 C283.63 853.8 284.66 853.8 285.73 853.8 C319.31 853.81 352.9 853.85 386.48 853.91 C421.97 853.97 457.47 854 492.96 854 C496.85 854 500.75 854 504.64 854.01 C506.08 854.01 506.08 854.01 507.55 854.01 C522.99 854.01 538.44 854.04 553.89 854.07 C569.41 854.11 584.93 854.11 600.45 854.1 C609.67 854.09 618.9 854.1 628.13 854.13 C634.28 854.16 640.44 854.16 646.6 854.13 C650.12 854.12 653.63 854.12 657.14 854.15 C660.92 854.17 664.7 854.16 668.48 854.13 C669.57 854.15 670.67 854.17 671.79 854.18 C678.48 854.08 681.98 852.8 686.77 848.06 C689.62 844.71 690.55 842.78 690.55 838.45 C690.56 836.95 690.56 836.95 690.57 835.42 C690.57 834.32 690.57 833.21 690.56 832.08 C690.57 830.91 690.57 829.73 690.58 828.52 C690.59 825.25 690.59 821.97 690.58 818.7 C690.58 815.14 690.59 811.59 690.6 808.03 C690.62 800.97 690.63 793.91 690.63 786.85 C690.63 778.39 690.65 769.94 690.66 761.48 C690.7 741.05 690.72 720.61 690.73 700.17 C690.74 690.51 690.75 680.84 690.76 671.18 C690.79 638.11 690.81 605.04 690.82 571.97 C690.82 569.9 690.82 567.82 690.83 565.74 C690.83 564.71 690.83 563.68 690.83 562.62 C690.83 557.4 690.83 552.19 690.83 546.97 C690.83 545.93 690.83 544.9 690.83 543.83 C690.84 510.25 690.88 476.66 690.94 443.08 C691 407.59 691.03 372.09 691.04 336.6 C691.04 332.71 691.04 328.81 691.04 324.92 C691.04 323.96 691.04 323 691.04 322.01 C691.04 306.57 691.07 291.12 691.1 275.67 C691.14 260.15 691.15 244.63 691.13 229.11 C691.12 219.89 691.13 210.66 691.17 201.43 C691.19 195.27 691.19 189.12 691.17 182.96 C691.15 179.44 691.15 175.93 691.18 172.42 C691.21 168.64 691.19 164.86 691.16 161.08 C691.18 159.99 691.2 158.89 691.22 157.77 C691.11 151.08 689.83 147.58 685.09 142.79 C681.75 139.94 679.81 139.01 675.48 139.01 C674.48 139 673.48 138.99 672.45 138.99 C670.8 138.99 670.8 138.99 669.11 139 C667.35 138.99 667.35 138.99 665.56 138.98 C662.28 138.97 659.01 138.97 655.73 138.98 C652.18 138.98 648.62 138.96 645.06 138.96 C638 138.94 630.94 138.93 623.88 138.93 C615.43 138.93 606.97 138.91 598.52 138.89 C578.08 138.86 557.64 138.84 537.21 138.83 C527.54 138.82 517.88 138.81 508.21 138.8 C475.14 138.77 442.07 138.75 409.01 138.74 C406.93 138.74 404.85 138.73 402.78 138.73 C401.75 138.73 400.72 138.73 399.65 138.73 C394.44 138.73 389.22 138.73 384 138.73 C382.45 138.73 382.45 138.73 380.86 138.73 C347.28 138.72 313.69 138.68 280.11 138.62 C244.62 138.56 209.13 138.53 173.64 138.52 C169.74 138.52 165.85 138.52 161.95 138.52 C160.51 138.52 160.51 138.52 159.05 138.52 C143.6 138.52 128.15 138.49 112.7 138.46 C97.18 138.42 81.66 138.41 66.14 138.43 C56.92 138.44 47.69 138.43 38.47 138.39 C32.31 138.37 26.15 138.37 19.99 138.39 C16.48 138.41 12.97 138.41 9.46 138.38 C5.67 138.35 1.89 138.37 -1.89 138.4 C-2.98 138.38 -4.07 138.36 -5.2 138.34 C-14.13 138.49 -18.81 141.92 -23.7 149.26 Z " fill="#000002" transform="translate(306.70351457968354,143.73686353024095)"/>
<path d="M0 0 C12.08 9.81 18.74 21.3 23.07 36.06 C25.09 40.51 28.02 41.38 32.39 43.14 C33.45 43.52 34.52 43.9 35.62 44.3 C53.37 51.05 65.26 62.37 73.06 79.7 C74.37 82.93 74.37 82.93 75.21 85.8 C76.4 89.76 77.18 92.2 80.79 94.41 C83.95 95.7 87.15 96.8 90.37 97.93 C99.76 101.99 107.23 106.58 114.37 113.93 C114.93 114.47 115.49 115.01 116.07 115.56 C123.31 123.11 127.37 134.17 130.64 143.91 C131.2 145.9 131.2 145.9 132.37 146.93 C134.06 147.02 135.75 147.04 137.44 147.04 C138.52 147.04 139.6 147.04 140.72 147.04 C141.89 147.03 143.07 147.03 144.28 147.02 C145.48 147.02 146.68 147.02 147.91 147.02 C151.75 147.01 155.59 147 159.43 146.99 C162.03 146.98 164.63 146.98 167.22 146.97 C173.61 146.96 179.99 146.95 186.37 146.93 C187.01 145.49 187.65 144.06 188.29 142.62 C188.65 141.82 189.01 141.03 189.38 140.2 C190.56 137.49 191.62 134.75 192.68 131.99 C199.05 116.73 210.43 105.73 225.37 98.93 C229.03 97.52 232.75 96.33 236.51 95.23 C240.95 93.21 241.83 90.28 243.58 85.91 C243.97 84.84 244.35 83.78 244.75 82.68 C251.81 64.1 263.91 52.46 281.84 44.39 C284.6 43.25 287.11 42.44 290 41.74 C294.68 39.22 295.34 36.25 297.11 31.38 C301.03 20.64 306.17 11.89 314.37 3.93 C314.91 3.37 315.45 2.8 316.01 2.23 C321.47 -3.02 328.55 -5.99 335.37 -9.07 C336.23 -9.46 337.08 -9.85 337.96 -10.25 C345.81 -13.37 351.81 -10.77 359.37 -7.82 C364.84 -5.45 369.62 -2.66 374.37 0.93 C375.37 1.64 375.37 1.64 376.39 2.37 C385.94 9.86 390.98 20.35 394.81 31.55 C396.74 37.3 396.74 37.3 400.61 41.78 C403.19 42.79 405.66 43.37 408.37 43.93 C424.74 49.55 436.4 59.56 444.18 74.99 C445.27 77.29 446.33 79.6 447.37 81.93 C447.76 82.78 448.14 83.63 448.54 84.5 C451.66 92.33 449.09 98.32 446.18 105.86 C439.57 121.05 428.38 132.1 413.37 138.93 C409.71 140.33 406 141.52 402.23 142.62 C397.79 144.64 396.92 147.57 395.16 151.94 C394.58 153.54 394.58 153.54 394 155.18 C386.94 173.75 374.83 185.39 356.91 193.46 C354.14 194.61 351.63 195.41 348.75 196.11 C344.06 198.63 343.41 201.6 341.63 206.47 C337.71 217.21 332.57 225.96 324.37 233.93 C323.83 234.49 323.29 235.05 322.73 235.62 C315.19 242.87 304.12 246.93 294.38 250.2 C292.4 250.75 292.4 250.75 291.37 251.93 C291.28 253.61 291.25 255.31 291.26 257 C291.26 258.62 291.26 258.62 291.26 260.27 C291.26 261.45 291.27 262.62 291.27 263.84 C291.27 265.03 291.28 266.23 291.28 267.46 C291.28 271.31 291.3 275.15 291.31 278.99 C291.31 281.59 291.32 284.18 291.32 286.78 C291.33 293.16 291.35 299.54 291.37 305.93 C292.81 306.57 294.24 307.21 295.67 307.85 C296.87 308.38 296.87 308.38 298.09 308.93 C300.8 310.11 303.55 311.17 306.31 312.24 C321.56 318.61 332.57 329.98 339.37 344.93 C340.78 348.58 341.97 352.3 343.07 356.06 C345.09 360.51 348.02 361.38 352.39 363.14 C353.45 363.52 354.52 363.9 355.62 364.3 C373.37 371.05 385.26 382.37 393.06 399.7 C394.37 402.93 394.37 402.93 395.21 405.8 C396.4 409.76 397.18 412.2 400.79 414.41 C403.95 415.7 407.15 416.8 410.37 417.93 C419.76 421.99 427.23 426.58 434.37 433.93 C434.93 434.47 435.49 435.01 436.07 435.56 C441.31 441.03 444.28 448.11 447.37 454.93 C447.76 455.78 448.15 456.64 448.55 457.52 C451.67 465.37 449.07 471.37 446.12 478.93 C443.75 484.39 440.96 489.18 437.37 493.93 C436.66 494.92 436.66 494.92 435.93 495.94 C428.58 505.31 418.38 510.52 407.25 513.93 C401.92 515.52 401.92 515.52 397.58 518.87 C396.55 521.21 395.95 523.44 395.37 525.93 C389.09 543.51 379.14 556.14 362.25 564.26 C360.3 565.16 358.34 566.05 356.37 566.93 C355.48 567.33 354.58 567.74 353.66 568.16 C345.93 571.24 339.87 568.6 332.43 565.74 C317.24 559.13 306.2 547.94 299.37 532.93 C297.96 529.27 296.78 525.55 295.67 521.79 C293.65 517.35 290.73 516.47 286.36 514.71 C285.29 514.33 284.22 513.95 283.12 513.55 C265.37 506.8 253.48 495.48 245.68 478.15 C244.37 474.93 244.37 474.93 243.53 472.05 C242.35 468.09 241.56 465.65 237.95 463.45 C234.79 462.15 231.59 461.05 228.37 459.93 C218.98 455.86 211.51 451.27 204.37 443.93 C203.81 443.39 203.25 442.85 202.67 442.29 C195.43 434.74 191.37 423.68 188.1 413.94 C187.54 411.96 187.54 411.96 186.37 410.93 C184.68 410.83 182.99 410.81 181.3 410.81 C180.22 410.81 179.14 410.81 178.02 410.81 C176.85 410.82 175.67 410.82 174.46 410.83 C173.26 410.83 172.07 410.83 170.83 410.83 C166.99 410.84 163.15 410.85 159.31 410.86 C156.71 410.87 154.11 410.87 151.52 410.88 C145.14 410.89 138.75 410.9 132.37 410.93 C131.73 412.36 131.09 413.79 130.45 415.23 C130.09 416.03 129.73 416.83 129.37 417.65 C128.18 420.36 127.12 423.11 126.06 425.86 C119.69 441.12 108.31 452.13 93.37 458.93 C89.71 460.33 86 461.52 82.23 462.62 C77.79 464.64 76.92 467.57 75.16 471.94 C74.78 473.01 74.39 474.08 74 475.18 C66.94 493.75 54.83 505.39 36.91 513.46 C34.14 514.61 31.63 515.41 28.75 516.11 C24.06 518.63 23.41 521.6 21.63 526.47 C17.71 537.21 12.57 545.96 4.37 553.93 C3.83 554.49 3.29 555.05 2.73 555.62 C-2.73 560.87 -9.81 563.84 -16.63 566.93 C-17.48 567.32 -18.34 567.7 -19.22 568.11 C-27.07 571.22 -33.07 568.63 -40.63 565.68 C-46.09 563.3 -50.88 560.51 -55.63 556.93 C-56.29 556.45 -56.96 555.97 -57.64 555.48 C-67.2 547.99 -72.23 537.5 -76.07 526.3 C-78 520.56 -78 520.56 -81.86 516.07 C-84.44 515.06 -86.92 514.48 -89.63 513.93 C-105.99 508.3 -117.65 498.29 -125.44 482.86 C-126.53 480.56 -127.59 478.25 -128.63 475.93 C-129.21 474.65 -129.21 474.65 -129.8 473.35 C-132.92 465.53 -130.35 459.53 -127.44 451.99 C-120.83 436.8 -109.64 425.76 -94.63 418.93 C-90.97 417.52 -87.25 416.33 -83.49 415.23 C-79.05 413.21 -78.17 410.28 -76.42 405.91 C-76.03 404.84 -75.65 403.78 -75.25 402.68 C-68.19 384.1 -56.09 372.46 -38.16 364.39 C-35.4 363.25 -32.89 362.44 -30 361.74 C-25.32 359.22 -24.66 356.25 -22.89 351.38 C-18.97 340.64 -13.83 331.89 -5.63 323.93 C-5.09 323.37 -4.55 322.8 -3.99 322.23 C3.56 314.98 14.62 310.92 24.36 307.65 C26.34 307.1 26.34 307.1 27.37 305.93 C27.46 304.24 27.49 302.55 27.48 300.86 C27.48 299.77 27.48 298.69 27.48 297.58 C27.48 296.4 27.47 295.23 27.47 294.02 C27.47 292.82 27.47 291.62 27.46 290.39 C27.46 286.55 27.45 282.7 27.43 278.86 C27.43 276.27 27.42 273.67 27.42 271.07 C27.41 264.69 27.39 258.31 27.37 251.93 C25.94 251.28 24.5 250.64 23.07 250 C22.27 249.65 21.47 249.29 20.65 248.92 C17.94 247.74 15.19 246.68 12.43 245.61 C-2.82 239.24 -13.83 227.87 -20.63 212.93 C-22.04 209.27 -23.22 205.55 -24.33 201.79 C-26.35 197.35 -29.27 196.47 -33.64 194.71 C-34.71 194.33 -35.78 193.95 -36.88 193.55 C-54.63 186.8 -66.52 175.48 -74.32 158.15 C-75.63 154.93 -75.63 154.93 -76.47 152.05 C-77.65 148.09 -78.44 145.65 -82.05 143.45 C-85.21 142.15 -88.41 141.05 -91.63 139.93 C-101.02 135.86 -108.49 131.27 -115.63 123.93 C-116.19 123.39 -116.75 122.85 -117.33 122.29 C-122.57 116.83 -125.54 109.74 -128.63 102.93 C-129.21 101.64 -129.21 101.64 -129.81 100.34 C-132.93 92.48 -130.33 86.48 -127.38 78.93 C-125.01 73.46 -122.22 68.67 -118.63 63.93 C-118.15 63.26 -117.68 62.6 -117.18 61.91 C-109.84 52.54 -99.64 47.34 -88.5 43.93 C-83.17 42.33 -83.17 42.33 -78.84 38.98 C-77.81 36.64 -77.21 34.41 -76.63 31.93 C-70.35 14.34 -60.4 1.71 -43.51 -6.41 C-41.56 -7.31 -39.6 -8.2 -37.63 -9.07 C-36.73 -9.48 -35.84 -9.89 -34.91 -10.31 C-23.27 -14.96 -9.25 -6.91 0 0 Z " fill="#000002" transform="translate(480.62890625,361.07421875)"/>
</svg>
