<?xml version="1.0" standalone="no"?>
<!DOCTYPE svg PUBLIC "-//W3C//DTD SVG 20010904//EN"
 "http://www.w3.org/TR/2001/REC-SVG-20010904/DTD/svg10.dtd">
<svg version="1.0" xmlns="http://www.w3.org/2000/svg"
 width="64.000000pt" height="64.000000pt" viewBox="0 0 64.000000 64.000000"
 preserveAspectRatio="xMidYMid meet">

<g transform="translate(0.000000,64.000000) scale(0.100000,-0.100000)"
fill="#000000" stroke="none">
<path d="M9 624 c-9 -11 -10 -20 -2 -32 9 -15 41 -17 313 -17 272 0 304 2 313
17 8 12 7 21 -2 32 -12 14 -52 16 -311 16 -259 0 -299 -2 -311 -16z"/>
<path d="M5 430 c-15 -48 -3 -50 315 -50 318 0 330 2 315 50 -6 20 -13 20
-315 20 -302 0 -309 0 -315 -20z"/>
<path d="M10 255 c-6 -8 -9 -23 -5 -35 6 -20 13 -20 315 -20 302 0 309 0 315
20 15 48 3 50 -315 50 -248 0 -300 -2 -310 -15z"/>
<path d="M9 54 c-9 -11 -10 -20 -2 -32 9 -15 41 -17 313 -17 272 0 304 2 313
17 8 12 7 21 -2 32 -12 14 -52 16 -311 16 -259 0 -299 -2 -311 -16z"/>
</g>
</svg>
